<mxfile host="app.diagrams.net" modified="2023-07-13T21:27:10.185Z" agent="Mozilla/5.0 (Windows NT 10.0; Win64; x64; rv:109.0) Gecko/20100101 Firefox/115.0" etag="2isUIq6tmaSnhJeI9XG-" version="21.6.2" type="github">
  <diagram name="Page-1" id="ATRq2LAwiy_IREtI_l5b">
    <mxGraphModel dx="1228" dy="604" grid="0" gridSize="10" guides="1" tooltips="1" connect="1" arrows="1" fold="1" page="1" pageScale="1" pageWidth="850" pageHeight="1100" math="0" shadow="0">
      <root>
        <mxCell id="0" />
        <mxCell id="1" parent="0" />
        <mxCell id="O7q4R_RF0-p1peHL-_la-16" style="edgeStyle=orthogonalEdgeStyle;rounded=0;orthogonalLoop=1;jettySize=auto;html=1;exitX=0.5;exitY=1;exitDx=0;exitDy=0;" parent="1" source="O7q4R_RF0-p1peHL-_la-1" target="O7q4R_RF0-p1peHL-_la-2" edge="1">
          <mxGeometry relative="1" as="geometry" />
        </mxCell>
        <mxCell id="O7q4R_RF0-p1peHL-_la-1" value="Project Manager" style="rounded=1;whiteSpace=wrap;html=1;" parent="1" vertex="1">
          <mxGeometry x="440" y="230" width="120" height="60" as="geometry" />
        </mxCell>
        <mxCell id="O7q4R_RF0-p1peHL-_la-9" style="edgeStyle=orthogonalEdgeStyle;rounded=0;orthogonalLoop=1;jettySize=auto;html=1;exitX=0.5;exitY=1;exitDx=0;exitDy=0;" parent="1" source="O7q4R_RF0-p1peHL-_la-2" target="O7q4R_RF0-p1peHL-_la-7" edge="1">
          <mxGeometry relative="1" as="geometry" />
        </mxCell>
        <mxCell id="O7q4R_RF0-p1peHL-_la-10" style="edgeStyle=orthogonalEdgeStyle;rounded=0;orthogonalLoop=1;jettySize=auto;html=1;exitX=0.5;exitY=1;exitDx=0;exitDy=0;entryX=0.5;entryY=0;entryDx=0;entryDy=0;" parent="1" source="O7q4R_RF0-p1peHL-_la-2" target="O7q4R_RF0-p1peHL-_la-5" edge="1">
          <mxGeometry relative="1" as="geometry" />
        </mxCell>
        <mxCell id="O7q4R_RF0-p1peHL-_la-11" style="edgeStyle=orthogonalEdgeStyle;rounded=0;orthogonalLoop=1;jettySize=auto;html=1;exitX=0.5;exitY=1;exitDx=0;exitDy=0;entryX=0.5;entryY=0;entryDx=0;entryDy=0;" parent="1" source="O7q4R_RF0-p1peHL-_la-2" target="O7q4R_RF0-p1peHL-_la-3" edge="1">
          <mxGeometry relative="1" as="geometry" />
        </mxCell>
        <mxCell id="O7q4R_RF0-p1peHL-_la-12" style="edgeStyle=orthogonalEdgeStyle;rounded=0;orthogonalLoop=1;jettySize=auto;html=1;exitX=0.5;exitY=1;exitDx=0;exitDy=0;entryX=0.5;entryY=0;entryDx=0;entryDy=0;" parent="1" source="O7q4R_RF0-p1peHL-_la-2" target="O7q4R_RF0-p1peHL-_la-6" edge="1">
          <mxGeometry relative="1" as="geometry" />
        </mxCell>
        <mxCell id="O7q4R_RF0-p1peHL-_la-13" style="edgeStyle=orthogonalEdgeStyle;rounded=0;orthogonalLoop=1;jettySize=auto;html=1;exitX=0.5;exitY=1;exitDx=0;exitDy=0;entryX=0.5;entryY=0;entryDx=0;entryDy=0;" parent="1" source="O7q4R_RF0-p1peHL-_la-2" target="O7q4R_RF0-p1peHL-_la-8" edge="1">
          <mxGeometry relative="1" as="geometry" />
        </mxCell>
        <mxCell id="O7q4R_RF0-p1peHL-_la-2" value="System Engineer" style="rounded=1;whiteSpace=wrap;html=1;" parent="1" vertex="1">
          <mxGeometry x="440" y="320" width="120" height="60" as="geometry" />
        </mxCell>
        <mxCell id="O7q4R_RF0-p1peHL-_la-3" value="Subsystem Engineer&lt;br&gt;ADCS" style="rounded=1;whiteSpace=wrap;html=1;" parent="1" vertex="1">
          <mxGeometry x="440" y="440" width="120" height="60" as="geometry" />
        </mxCell>
        <mxCell id="O7q4R_RF0-p1peHL-_la-5" value="Subsystem Engineer&lt;br&gt;COM" style="rounded=1;whiteSpace=wrap;html=1;" parent="1" vertex="1">
          <mxGeometry x="290" y="440" width="120" height="60" as="geometry" />
        </mxCell>
        <mxCell id="O7q4R_RF0-p1peHL-_la-6" value="Subsystem Engineer&lt;br&gt;CDH" style="rounded=1;whiteSpace=wrap;html=1;" parent="1" vertex="1">
          <mxGeometry x="590" y="440" width="120" height="60" as="geometry" />
        </mxCell>
        <mxCell id="O7q4R_RF0-p1peHL-_la-7" value="Subsystem EngineerP/L" style="rounded=1;whiteSpace=wrap;html=1;" parent="1" vertex="1">
          <mxGeometry x="140" y="440" width="120" height="60" as="geometry" />
        </mxCell>
        <mxCell id="O7q4R_RF0-p1peHL-_la-8" value="Subsystem Engineer POW" style="rounded=1;whiteSpace=wrap;html=1;" parent="1" vertex="1">
          <mxGeometry x="740" y="440" width="120" height="60" as="geometry" />
        </mxCell>
        <mxCell id="O7q4R_RF0-p1peHL-_la-15" style="edgeStyle=orthogonalEdgeStyle;rounded=0;orthogonalLoop=1;jettySize=auto;html=1;exitX=1;exitY=0.5;exitDx=0;exitDy=0;entryX=0;entryY=0.5;entryDx=0;entryDy=0;" parent="1" source="O7q4R_RF0-p1peHL-_la-14" target="O7q4R_RF0-p1peHL-_la-1" edge="1">
          <mxGeometry relative="1" as="geometry" />
        </mxCell>
        <mxCell id="O7q4R_RF0-p1peHL-_la-14" value="Principle Investigator" style="rounded=1;whiteSpace=wrap;html=1;" parent="1" vertex="1">
          <mxGeometry x="140" y="230" width="120" height="60" as="geometry" />
        </mxCell>
        <mxCell id="0iLjsOzK3O0HzyLVZsIp-12" style="edgeStyle=orthogonalEdgeStyle;rounded=0;orthogonalLoop=1;jettySize=auto;html=1;exitX=0.5;exitY=1;exitDx=0;exitDy=0;entryX=0.5;entryY=0;entryDx=0;entryDy=0;curved=1;" edge="1" parent="1" source="0iLjsOzK3O0HzyLVZsIp-1" target="0iLjsOzK3O0HzyLVZsIp-6">
          <mxGeometry relative="1" as="geometry" />
        </mxCell>
        <mxCell id="0iLjsOzK3O0HzyLVZsIp-13" style="edgeStyle=orthogonalEdgeStyle;rounded=0;orthogonalLoop=1;jettySize=auto;html=1;exitX=0.5;exitY=1;exitDx=0;exitDy=0;curved=1;" edge="1" parent="1" source="0iLjsOzK3O0HzyLVZsIp-1" target="0iLjsOzK3O0HzyLVZsIp-2">
          <mxGeometry relative="1" as="geometry">
            <Array as="points">
              <mxPoint x="1353" y="347" />
              <mxPoint x="1217" y="347" />
            </Array>
          </mxGeometry>
        </mxCell>
        <mxCell id="0iLjsOzK3O0HzyLVZsIp-14" style="edgeStyle=orthogonalEdgeStyle;rounded=0;orthogonalLoop=1;jettySize=auto;html=1;exitX=0.5;exitY=1;exitDx=0;exitDy=0;entryX=0.5;entryY=0;entryDx=0;entryDy=0;curved=1;" edge="1" parent="1" source="0iLjsOzK3O0HzyLVZsIp-1" target="0iLjsOzK3O0HzyLVZsIp-3">
          <mxGeometry relative="1" as="geometry" />
        </mxCell>
        <mxCell id="0iLjsOzK3O0HzyLVZsIp-15" style="edgeStyle=orthogonalEdgeStyle;rounded=0;orthogonalLoop=1;jettySize=auto;html=1;exitX=0.5;exitY=1;exitDx=0;exitDy=0;curved=1;" edge="1" parent="1" source="0iLjsOzK3O0HzyLVZsIp-1" target="0iLjsOzK3O0HzyLVZsIp-4">
          <mxGeometry relative="1" as="geometry">
            <Array as="points">
              <mxPoint x="1353" y="348" />
              <mxPoint x="1496" y="348" />
            </Array>
          </mxGeometry>
        </mxCell>
        <mxCell id="0iLjsOzK3O0HzyLVZsIp-16" style="edgeStyle=orthogonalEdgeStyle;rounded=0;orthogonalLoop=1;jettySize=auto;html=1;exitX=0.5;exitY=1;exitDx=0;exitDy=0;entryX=0.5;entryY=0;entryDx=0;entryDy=0;curved=1;" edge="1" parent="1" source="0iLjsOzK3O0HzyLVZsIp-1" target="0iLjsOzK3O0HzyLVZsIp-5">
          <mxGeometry relative="1" as="geometry" />
        </mxCell>
        <mxCell id="0iLjsOzK3O0HzyLVZsIp-1" value="Satellite System" style="whiteSpace=wrap;html=1;aspect=fixed;" vertex="1" parent="1">
          <mxGeometry x="1313" y="207" width="80" height="80" as="geometry" />
        </mxCell>
        <mxCell id="0iLjsOzK3O0HzyLVZsIp-2" value="&lt;div&gt;COM subsystem&lt;/div&gt;&lt;div&gt;-trade-off&lt;/div&gt;&lt;div&gt;-analyses&lt;/div&gt;" style="whiteSpace=wrap;html=1;aspect=fixed;" vertex="1" parent="1">
          <mxGeometry x="1177" y="380" width="80" height="80" as="geometry" />
        </mxCell>
        <mxCell id="0iLjsOzK3O0HzyLVZsIp-17" style="edgeStyle=orthogonalEdgeStyle;rounded=0;orthogonalLoop=1;jettySize=auto;html=1;exitX=0.5;exitY=1;exitDx=0;exitDy=0;entryX=0;entryY=0.5;entryDx=0;entryDy=0;curved=1;" edge="1" parent="1" source="0iLjsOzK3O0HzyLVZsIp-3" target="0iLjsOzK3O0HzyLVZsIp-1">
          <mxGeometry relative="1" as="geometry">
            <Array as="points">
              <mxPoint x="1353" y="567" />
              <mxPoint x="963" y="567" />
              <mxPoint x="963" y="247" />
            </Array>
          </mxGeometry>
        </mxCell>
        <mxCell id="0iLjsOzK3O0HzyLVZsIp-3" value="&lt;div&gt;ADC subsystem&lt;/div&gt;&lt;div&gt;-trade-off&lt;/div&gt;&lt;div&gt;-analyses&lt;/div&gt;" style="whiteSpace=wrap;html=1;aspect=fixed;" vertex="1" parent="1">
          <mxGeometry x="1313" y="380" width="80" height="80" as="geometry" />
        </mxCell>
        <mxCell id="0iLjsOzK3O0HzyLVZsIp-4" value="&lt;div&gt;POW subsystem&lt;/div&gt;&lt;div&gt;-trade-off&lt;/div&gt;&lt;div&gt;-analyses&lt;/div&gt;" style="whiteSpace=wrap;html=1;aspect=fixed;" vertex="1" parent="1">
          <mxGeometry x="1456" y="380" width="80" height="80" as="geometry" />
        </mxCell>
        <mxCell id="0iLjsOzK3O0HzyLVZsIp-5" value="CDH&lt;br&gt;subsystem&lt;div align=&quot;left&quot;&gt;-trade-off&lt;/div&gt;-analyses" style="whiteSpace=wrap;html=1;aspect=fixed;" vertex="1" parent="1">
          <mxGeometry x="1598" y="380" width="80" height="80" as="geometry" />
        </mxCell>
        <mxCell id="0iLjsOzK3O0HzyLVZsIp-6" value="P/L&lt;br&gt;subsystem&lt;div align=&quot;left&quot;&gt;-trade-off&lt;/div&gt;&lt;div align=&quot;left&quot;&gt;-analyses&lt;/div&gt;" style="whiteSpace=wrap;html=1;aspect=fixed;" vertex="1" parent="1">
          <mxGeometry x="1041" y="380" width="80" height="80" as="geometry" />
        </mxCell>
        <mxCell id="0iLjsOzK3O0HzyLVZsIp-19" style="edgeStyle=orthogonalEdgeStyle;rounded=0;orthogonalLoop=1;jettySize=auto;html=1;exitX=0.5;exitY=1;exitDx=0;exitDy=0;entryX=0;entryY=0.5;entryDx=0;entryDy=0;curved=1;" edge="1" parent="1" source="0iLjsOzK3O0HzyLVZsIp-2" target="0iLjsOzK3O0HzyLVZsIp-1">
          <mxGeometry relative="1" as="geometry">
            <mxPoint x="1267" y="444" as="sourcePoint" />
            <mxPoint x="1444" y="230" as="targetPoint" />
            <Array as="points">
              <mxPoint x="1217" y="540" />
              <mxPoint x="978" y="540" />
              <mxPoint x="978" y="247" />
            </Array>
          </mxGeometry>
        </mxCell>
        <mxCell id="0iLjsOzK3O0HzyLVZsIp-20" style="edgeStyle=orthogonalEdgeStyle;rounded=0;orthogonalLoop=1;jettySize=auto;html=1;exitX=0.416;exitY=1.023;exitDx=0;exitDy=0;entryX=0.006;entryY=0.522;entryDx=0;entryDy=0;curved=1;exitPerimeter=0;entryPerimeter=0;" edge="1" parent="1" source="0iLjsOzK3O0HzyLVZsIp-6" target="0iLjsOzK3O0HzyLVZsIp-1">
          <mxGeometry relative="1" as="geometry">
            <mxPoint x="1082" y="475.88" as="sourcePoint" />
            <mxPoint x="1399.12" y="262" as="targetPoint" />
            <Array as="points">
              <mxPoint x="1074" y="476" />
              <mxPoint x="1004" y="476" />
              <mxPoint x="1004" y="249" />
            </Array>
          </mxGeometry>
        </mxCell>
        <mxCell id="0iLjsOzK3O0HzyLVZsIp-21" style="edgeStyle=orthogonalEdgeStyle;rounded=0;orthogonalLoop=1;jettySize=auto;html=1;exitX=0.5;exitY=1;exitDx=0;exitDy=0;entryX=0.015;entryY=0.531;entryDx=0;entryDy=0;curved=1;entryPerimeter=0;" edge="1" parent="1" source="0iLjsOzK3O0HzyLVZsIp-4" target="0iLjsOzK3O0HzyLVZsIp-1">
          <mxGeometry relative="1" as="geometry">
            <mxPoint x="1363" y="470" as="sourcePoint" />
            <mxPoint x="1403" y="257" as="targetPoint" />
            <Array as="points">
              <mxPoint x="1496" y="584" />
              <mxPoint x="943" y="584" />
              <mxPoint x="943" y="249" />
            </Array>
          </mxGeometry>
        </mxCell>
        <mxCell id="0iLjsOzK3O0HzyLVZsIp-22" style="edgeStyle=orthogonalEdgeStyle;rounded=0;orthogonalLoop=1;jettySize=auto;html=1;exitX=0.5;exitY=1;exitDx=0;exitDy=0;curved=1;entryX=0.018;entryY=0.542;entryDx=0;entryDy=0;entryPerimeter=0;" edge="1" parent="1" source="0iLjsOzK3O0HzyLVZsIp-5" target="0iLjsOzK3O0HzyLVZsIp-1">
          <mxGeometry relative="1" as="geometry">
            <mxPoint x="1506" y="470" as="sourcePoint" />
            <mxPoint x="1395" y="247" as="targetPoint" />
            <Array as="points">
              <mxPoint x="1638" y="600" />
              <mxPoint x="919" y="600" />
              <mxPoint x="919" y="250" />
            </Array>
          </mxGeometry>
        </mxCell>
        <mxCell id="0iLjsOzK3O0HzyLVZsIp-23" value="requirements" style="text;html=1;strokeColor=none;fillColor=none;align=center;verticalAlign=middle;whiteSpace=wrap;rounded=0;" vertex="1" parent="1">
          <mxGeometry x="1257" y="293" width="60" height="30" as="geometry" />
        </mxCell>
        <mxCell id="0iLjsOzK3O0HzyLVZsIp-24" value="specifications" style="text;html=1;strokeColor=none;fillColor=none;align=center;verticalAlign=middle;whiteSpace=wrap;rounded=0;" vertex="1" parent="1">
          <mxGeometry x="1121" y="593" width="60" height="30" as="geometry" />
        </mxCell>
        <mxCell id="0iLjsOzK3O0HzyLVZsIp-26" value="" style="endArrow=classic;html=1;rounded=0;entryX=0.413;entryY=-0.008;entryDx=0;entryDy=0;entryPerimeter=0;strokeWidth=7;" edge="1" parent="1" target="0iLjsOzK3O0HzyLVZsIp-1">
          <mxGeometry width="50" height="50" relative="1" as="geometry">
            <mxPoint x="1348" y="104" as="sourcePoint" />
            <mxPoint x="1367" y="112" as="targetPoint" />
          </mxGeometry>
        </mxCell>
        <mxCell id="0iLjsOzK3O0HzyLVZsIp-27" value="system performance" style="text;html=1;strokeColor=none;fillColor=none;align=center;verticalAlign=middle;whiteSpace=wrap;rounded=0;" vertex="1" parent="1">
          <mxGeometry x="1433" y="195" width="60" height="30" as="geometry" />
        </mxCell>
        <mxCell id="0iLjsOzK3O0HzyLVZsIp-28" value="" style="endArrow=classic;html=1;rounded=0;strokeWidth=7;exitX=1.01;exitY=0.452;exitDx=0;exitDy=0;exitPerimeter=0;" edge="1" parent="1" source="0iLjsOzK3O0HzyLVZsIp-1">
          <mxGeometry width="50" height="50" relative="1" as="geometry">
            <mxPoint x="1474" y="165" as="sourcePoint" />
            <mxPoint x="1484" y="243" as="targetPoint" />
          </mxGeometry>
        </mxCell>
        <mxCell id="0iLjsOzK3O0HzyLVZsIp-29" value="system requirements" style="text;html=1;strokeColor=none;fillColor=none;align=center;verticalAlign=middle;whiteSpace=wrap;rounded=0;" vertex="1" parent="1">
          <mxGeometry x="1273" y="110" width="60" height="30" as="geometry" />
        </mxCell>
      </root>
    </mxGraphModel>
  </diagram>
</mxfile>
